<svg width="253" height="336" viewBox="0 0 253 336" fill="none" xmlns="http://www.w3.org/2000/svg">
<path d="M81 183.5L172 125.5V99.7608L81 41.5V73.5L143 111V114.5L81 152V183.5Z" fill="#8F00FF"/>
<path d="M81 183.5L172 125.5V99.7608L81 41.5V73.5L143 111V114.5L81 152V183.5Z" stroke="black" stroke-width="10"/>
<path fill-rule="evenodd" clip-rule="evenodd" d="M5 5.5V330.5H78V220.5C150 224.5 247.5 217.575 247.5 111.5C247.5 69.5 239.5 5.5 107.48 5.5H5ZM172 125.5L81 183.5V152L143 114.5V111L81 73.5V41.5L172 99.7608V125.5Z" stroke="black" stroke-width="10"/>
<path d="M105.5 292.5V330.5H247.5V292.5H105.5Z" stroke="black" stroke-width="10"/>
</svg>
