<svg width="701" height="469" viewBox="0 0 701 469" fill="none" xmlns="http://www.w3.org/2000/svg">
<path d="M393.25 390C372.677 390 356 406.677 356 427.25V427.25C356 447.823 372.677 464.5 393.25 464.5H659.75C680.323 464.5 697 447.823 697 427.25V427.25C697 406.677 680.323 390 659.75 390H393.25Z" stroke="black" stroke-width="8"/>
<path d="M62.3168 7.92184C35.0874 -4.64856 4 15.2402 4 45.2311V45.2311C4 61.6637 13.7897 76.5164 28.8913 82.9954L249.444 177.618C250.691 178.153 251.5 179.38 251.5 180.738V180.738C251.5 182.096 250.69 183.323 249.442 183.858L28.9576 278.309C13.8173 284.794 4 299.68 4 316.151V316.151C4 346.197 35.1444 366.122 62.4237 353.529L326.957 231.408C344.662 223.234 356 205.512 356 186.012V175.488C356 155.988 344.662 138.266 326.957 130.092L62.3168 7.92184Z" stroke="black" stroke-width="8"/>
</svg>
