<svg width="713" height="481" viewBox="0 0 713 481" fill="none" xmlns="http://www.w3.org/2000/svg">
<path d="M399.25 396C378.677 396 362 412.677 362 433.25V433.25C362 453.823 378.677 470.5 399.25 470.5H665.75C686.323 470.5 703 453.823 703 433.25V433.25C703 412.677 686.323 396 665.75 396H399.25Z" stroke="black" stroke-width="20"/>
<path d="M68.3168 13.9218C41.0874 1.35144 10 21.2402 10 51.2311V51.2311C10 67.6637 19.7897 82.5164 34.8913 88.9954L255.444 183.618C256.691 184.153 257.5 185.38 257.5 186.738V186.738C257.5 188.096 256.69 189.323 255.442 189.858L34.9576 284.309C19.8173 290.794 10 305.68 10 322.151V322.151C10 352.197 41.1444 372.122 68.4237 359.529L332.957 237.408C350.662 229.234 362 211.512 362 192.012V181.488C362 161.988 350.662 144.266 332.957 136.092L68.3168 13.9218Z" stroke="black" stroke-width="20"/>
</svg>
