<svg width="695" height="463" viewBox="0 0 695 463" fill="none" xmlns="http://www.w3.org/2000/svg">
<path d="M390.25 387C369.677 387 353 403.677 353 424.25V424.25C353 444.823 369.677 461.5 390.25 461.5H656.75C677.323 461.5 694 444.823 694 424.25V424.25C694 403.677 677.323 387 656.75 387H390.25Z" stroke="black" stroke-width="2"/>
<path d="M59.3168 4.92184C32.0874 -7.64856 1 12.2402 1 42.2311V42.2311C1 58.6637 10.7897 73.5164 25.8913 79.9954L246.444 174.618C247.691 175.153 248.5 176.38 248.5 177.738V177.738C248.5 179.096 247.69 180.323 246.442 180.858L25.9576 275.309C10.8173 281.794 1 296.68 1 313.151V313.151C1 343.197 32.1444 363.122 59.4237 350.529L323.957 228.408C341.662 220.234 353 202.512 353 183.012V172.488C353 152.988 341.662 135.266 323.957 127.092L59.3168 4.92184Z" stroke="black" stroke-width="2"/>
</svg>
