<svg width="697" height="464" viewBox="0 0 697 464" fill="none" xmlns="http://www.w3.org/2000/svg">
<path d="M391.25 388C370.677 388 354 404.677 354 425.25V425.25C354 445.823 370.677 462.5 391.25 462.5H657.75C678.323 462.5 695 445.823 695 425.25V425.25C695 404.677 678.323 388 657.75 388H391.25Z" stroke="black" stroke-width="3"/>
<path d="M60.3168 5.92184C33.0874 -6.64856 2 13.2402 2 43.2311V43.2311C2 59.6637 11.7897 74.5164 26.8913 80.9954L247.444 175.618C248.691 176.153 249.5 177.38 249.5 178.738V178.738C249.5 180.096 248.69 181.323 247.442 181.858L26.9576 276.309C11.8173 282.794 2 297.68 2 314.151V314.151C2 344.197 33.1444 364.122 60.4237 351.529L324.957 229.408C342.662 221.234 354 203.512 354 184.012V173.488C354 153.988 342.662 136.266 324.957 128.092L60.3168 5.92184Z" stroke="black" stroke-width="3"/>
</svg>
