<svg width="699" height="467" viewBox="0 0 699 467" fill="none" xmlns="http://www.w3.org/2000/svg">
<path d="M392.25 389C371.677 389 355 405.677 355 426.25V426.25C355 446.823 371.677 463.5 392.25 463.5H658.75C679.323 463.5 696 446.823 696 426.25V426.25C696 405.677 679.323 389 658.75 389H392.25Z" stroke="black" stroke-width="6"/>
<path d="M61.3168 6.92184C34.0874 -5.64856 3 14.2402 3 44.2311V44.2311C3 60.6637 12.7897 75.5164 27.8913 81.9954L248.444 176.618C249.691 177.153 250.5 178.38 250.5 179.738V179.738C250.5 181.096 249.69 182.323 248.442 182.858L27.9576 277.309C12.8173 283.794 3 298.68 3 315.151V315.151C3 345.197 34.1444 365.122 61.4237 352.529L325.957 230.408C343.662 222.234 355 204.512 355 185.012V174.488C355 154.988 343.662 137.266 325.957 129.092L61.3168 6.92184Z" stroke="black" stroke-width="6"/>
</svg>
