<svg width="248" height="295" viewBox="0 0 248 295" fill="black" xmlns="http://www.w3.org/2000/svg">
<path d="M80.0463 144.895C80.0463 152.423 88.0518 157.252 94.7112 153.74L173.86 111.998C177.141 110.268 179.195 106.863 179.195 103.153V91.9988C179.195 88.2956 177.149 84.8956 173.876 83.1621L94.7276 41.2328C88.0675 37.7046 80.0463 42.5325 80.0463 50.0694V56.1269C80.0463 59.9132 82.1849 63.3749 85.5708 65.0695L146.187 95.4062C147.052 95.839 147.598 96.723 147.598 97.69V97.69C147.598 98.657 147.052 99.541 146.187 99.9738L85.5708 130.311C82.1848 132.005 80.0463 135.467 80.0463 139.253V144.895Z" stroke="white"/>
<path fill-rule="evenodd" clip-rule="evenodd" d="M11 1C5.47715 1 1 5.47715 1 11V284C1 289.523 5.47715 294 11 294H66.7777C72.3006 294 76.7777 289.523 76.7777 284V205.301C76.7777 199.598 81.5339 195.059 87.234 195.244C163.148 197.712 247 187.973 247 96.5631C247 58.6985 238.284 1 94.4419 1H11ZM179.195 103.153C179.195 106.863 177.141 110.268 173.86 111.998L94.7112 153.74C88.0518 157.252 80.0463 152.423 80.0463 144.895V139.253C80.0463 135.467 82.1848 132.005 85.5708 130.311L146.187 99.9738C147.052 99.541 147.598 98.657 147.598 97.69V97.69C147.598 96.723 147.052 95.839 146.187 95.4062L85.5708 65.0695C82.1849 63.3749 80.0463 59.9132 80.0463 56.1269V50.0694C80.0463 42.5325 88.0675 37.7046 94.7276 41.2328L173.876 83.1621C177.149 84.8956 179.195 88.2956 179.195 91.9988V103.153Z" stroke="white"/>
<path d="M116.74 244C111.217 244 106.74 248.477 106.74 254V284C106.74 289.523 111.217 294 116.74 294H237C242.523 294 247 289.523 247 284V254C247 248.477 242.523 244 237 244H116.74Z" stroke="white"/>
</svg>
